<svg id="Layer_1" data-name="Layer 1" xmlns="http://www.w3.org/2000/svg" viewBox="0 0 1008 75">
  <title>logo</title>
  <g>
    <path d="M35.22,50.86V55l-8.3.25-.24-5.72h-.51A5.74,5.74,0,0,1,23.69,54a10.26,10.26,0,0,1-5.9,1.51,9.24,9.24,0,0,1-6.27-1.94A7,7,0,0,1,9.3,48a7.33,7.33,0,0,1,3-6.3c2-1.46,4.82-2.2,8.48-2.2a19.18,19.18,0,0,1,5.13.61V38.75A4.26,4.26,0,0,0,24.1,35a10.09,10.09,0,0,0-5.43-1.33l-6.2-.17L13,28.89l5.22.07q12.65.18,12.65,10.57V50.32Zm-12.65-.32a6,6,0,0,0,2.49-2.1,4.88,4.88,0,0,0,.84-2.71V44.17a14,14,0,0,0-2.43-.4c-.81-.06-1.82-.09-3-.09a9,9,0,0,0-4.66,1,3.17,3.17,0,0,0-1.59,2.88,3.53,3.53,0,0,0,1.12,2.84,5,5,0,0,0,3.32,1A8.89,8.89,0,0,0,22.57,50.54Z"/>
    <path d="M61.12,29.66a6,6,0,0,1,2.46,3.13,16.23,16.23,0,0,1,.8,5.57H59.25a7.5,7.5,0,0,0-.84-4.06A3.05,3.05,0,0,0,55.68,33a5.35,5.35,0,0,0-4.89,2.78c-1.1,1.86-1.65,4.54-1.65,8.06v6.83h6.35V55H38.2v-4.3H44V33.43H39.18v-4.3h9L49,35.77h.59a8,8,0,0,1,2-5.36,7,7,0,0,1,5.14-1.77A8.3,8.3,0,0,1,61.12,29.66Z"/>
    <path d="M73.13,55.33a27.15,27.15,0,0,1-3.77-.56l.58-4.69a55.22,55.22,0,0,0,8.25.78,15.24,15.24,0,0,0,5.69-.77,2.56,2.56,0,0,0,1.78-2.45,2.32,2.32,0,0,0-.59-1.71A4.33,4.33,0,0,0,83.13,45l-6-1.51a16.41,16.41,0,0,1-4-1.47A5.59,5.59,0,0,1,71,39.91a6.35,6.35,0,0,1-.74-3.21,7.33,7.33,0,0,1,1.38-4.63,8.16,8.16,0,0,1,4.3-2.6,28.74,28.74,0,0,1,7.61-.83,47,47,0,0,1,6.83.49l-.54,4.5q-3.68-.35-6.44-.35a16.91,16.91,0,0,0-5.93.75,2.52,2.52,0,0,0-1.83,2.43,2,2,0,0,0,.63,1.61,5.53,5.53,0,0,0,2.15.93l4.78,1.17a18.81,18.81,0,0,1,4.5,1.61,6.46,6.46,0,0,1,2.54,2.32A6.64,6.64,0,0,1,91,47.54a7.22,7.22,0,0,1-1.35,4.55,7.77,7.77,0,0,1-4.16,2.58,26.82,26.82,0,0,1-7.34.83C76.21,55.5,74.52,55.44,73.13,55.33Z"/>
    <path d="M123.12,50.86V55l-8.31.25-.24-5.72h-.51A5.74,5.74,0,0,1,111.58,54a10.26,10.26,0,0,1-5.9,1.51,9.24,9.24,0,0,1-6.27-1.94A7,7,0,0,1,97.19,48a7.33,7.33,0,0,1,3-6.3c2-1.46,4.82-2.2,8.48-2.2a19.18,19.18,0,0,1,5.13.61V38.75A4.26,4.26,0,0,0,112,35a10.09,10.09,0,0,0-5.43-1.33l-6.2-.17.49-4.59,5.22.07q12.65.18,12.65,10.57V50.32Zm-12.66-.32a5.92,5.92,0,0,0,2.49-2.1,4.88,4.88,0,0,0,.84-2.71V44.17a13.69,13.69,0,0,0-2.43-.4c-.81-.06-1.82-.09-3-.09a9,9,0,0,0-4.66,1,3.17,3.17,0,0,0-1.59,2.88,3.53,3.53,0,0,0,1.12,2.84,5,5,0,0,0,3.32,1A8.89,8.89,0,0,0,110.46,50.54Z"/>
    <path d="M147.09,31.13q2.25,2.49,2.25,7V55h-5.18V38.17a5.46,5.46,0,0,0-1.22-3.79A4.39,4.39,0,0,0,139.52,33q-6.11,0-6.1,7.42V55h-5.18V29.13h4.69l.41,4.69h.57a5.13,5.13,0,0,1,1.9-3.89,8,8,0,0,1,4.93-1.29A8.11,8.11,0,0,1,147.09,31.13Z"/>
    <path d="M181.71,50.86V55l-8.3.25-.25-5.72h-.51A5.71,5.71,0,0,1,170.17,54a10.24,10.24,0,0,1-5.89,1.51A9.27,9.27,0,0,1,158,53.56,7,7,0,0,1,155.78,48a7.35,7.35,0,0,1,3-6.3c2-1.46,4.82-2.2,8.49-2.2a19.16,19.16,0,0,1,5.12.61V38.75A4.27,4.27,0,0,0,170.59,35a10.15,10.15,0,0,0-5.43-1.33l-6.2-.17.48-4.59,5.23.07q12.65.18,12.64,10.57V50.32Zm-12.66-.32a5.92,5.92,0,0,0,2.49-2.1,4.88,4.88,0,0,0,.84-2.71V44.17a13.69,13.69,0,0,0-2.43-.4c-.8-.06-1.82-.09-3-.09a9,9,0,0,0-4.66,1,3.17,3.17,0,0,0-1.59,2.88,3.53,3.53,0,0,0,1.13,2.84,4.93,4.93,0,0,0,3.32,1A8.85,8.85,0,0,0,169.05,50.54Z"/>
    <path d="M205.68,31.13q2.25,2.49,2.25,7V55h-5.18V38.17a5.42,5.42,0,0,0-1.22-3.79A4.38,4.38,0,0,0,198.12,33Q192,33,192,40.46V55h-5.17V29.13h4.68l.42,4.69h.56a5.17,5.17,0,0,1,1.9-3.89,9.63,9.63,0,0,1,11.28,1.2Z"/>
    <path d="M237.23,18.39V55l-4.64.25L232.15,51h-.59a4.29,4.29,0,0,1-2.07,3.34,8.92,8.92,0,0,1-4.81,1.15A9.88,9.88,0,0,1,219.1,54a9.48,9.48,0,0,1-3.52-4.48,19,19,0,0,1-1.2-7.17,20.38,20.38,0,0,1,1.2-7.4,9.92,9.92,0,0,1,3.54-4.68,9.75,9.75,0,0,1,5.61-1.6,7.78,7.78,0,0,1,4.79,1.29,5.52,5.52,0,0,1,2,3.89h.49V18.39Zm-5.18,28.32V40.46q0-7.43-6.59-7.42a4.93,4.93,0,0,0-4.41,2.42,12.72,12.72,0,0,0-1.55,6.86q0,4.34,1.52,6.56a5,5,0,0,0,4.49,2.23Q232.05,51.11,232.05,46.71Z"/>
    <path d="M264.28,31.13q2.24,2.49,2.24,7V55h-5.17V38.17a5.46,5.46,0,0,0-1.22-3.79A4.42,4.42,0,0,0,256.71,33q-6.1,0-6.1,7.42V55h-5.18V18.39h5.18V33.82h.48A5.17,5.17,0,0,1,253,29.93a8,8,0,0,1,4.93-1.29A8.12,8.12,0,0,1,264.28,31.13Z"/>
    <path d="M298.9,50.86V55l-8.3.25-.25-5.72h-.51A5.74,5.74,0,0,1,287.36,54a10.26,10.26,0,0,1-5.9,1.51,9.24,9.24,0,0,1-6.27-1.94A7,7,0,0,1,273,48a7.35,7.35,0,0,1,3-6.3c2-1.46,4.82-2.2,8.48-2.2a19.18,19.18,0,0,1,5.13.61V38.75A4.27,4.27,0,0,0,287.78,35a10.16,10.16,0,0,0-5.44-1.33l-6.2-.17.49-4.59,5.23.07q12.64.18,12.64,10.57V50.32Zm-12.66-.32a5.92,5.92,0,0,0,2.49-2.1,4.88,4.88,0,0,0,.84-2.71V44.17a13.69,13.69,0,0,0-2.43-.4c-.8-.06-1.82-.09-3-.09a9,9,0,0,0-4.66,1,3.17,3.17,0,0,0-1.59,2.88A3.56,3.56,0,0,0,279,50.38a5,5,0,0,0,3.32,1A8.89,8.89,0,0,0,286.24,50.54Z"/>
    <path d="M331.66,29.33h24.41v4.54H331.66Zm0,12.21h24.41v4.54H331.66Z"/>
    <path d="M402,57.27a16.31,16.31,0,0,1-5.71-7.64,33.24,33.24,0,0,1-2-12.1,32.46,32.46,0,0,1,2-11.94A16.07,16.07,0,0,1,402,18.05a15.47,15.47,0,0,1,9-2.59h1.17l-.49,4.4h-.2A10.47,10.47,0,0,0,405,21.93a12.62,12.62,0,0,0-4.11,6,28.68,28.68,0,0,0-1.41,9.56,29.6,29.6,0,0,0,1.41,9.72A12.89,12.89,0,0,0,405,53.39a10.32,10.32,0,0,0,6.54,2.11h.2l.49,4.39H411A15.34,15.34,0,0,1,402,57.27Z"/>
    <path d="M422.72,55.5a10.33,10.33,0,0,0,6.55-2.11,13,13,0,0,0,4.11-6.14,29.6,29.6,0,0,0,1.41-9.72A28.68,28.68,0,0,0,433.38,28a12.69,12.69,0,0,0-4.11-6,10.48,10.48,0,0,0-6.55-2.07h-.19l-.49-4.4h1.17a15.42,15.42,0,0,1,9,2.59A16,16,0,0,1,438,25.59a32.46,32.46,0,0,1,2,11.94,33.24,33.24,0,0,1-2,12.1,16.26,16.26,0,0,1-5.72,7.64,15.29,15.29,0,0,1-9,2.62H422l.49-4.39Z"/>
    <path d="M505.15,23.18l23.29,13v3L505.15,52.28V46.91l4.88-.74v-.58H482.54V41.05h33.1l5.62-3.13v-.44l-5.4-3.12H482.54V29.82h27.59v-.49l-5-.78Z"/>
    <path d="M577.6,57.87a9.46,9.46,0,0,1-2.19-6.67c0-1.79,0-3.12,0-4l0-4.2a2.54,2.54,0,0,0-.93-2,5.55,5.55,0,0,0-2.22-1.12,9.55,9.55,0,0,0-2.47-.35V35.63a7.74,7.74,0,0,0,2.38-.44A7.09,7.09,0,0,0,574.51,34a2.34,2.34,0,0,0,1-1.84l0-4.27c0-.88,0-2.19,0-3.93a8.72,8.72,0,0,1,2.19-6.35,8.18,8.18,0,0,1,6.16-2.25,16,16,0,0,1,4.15.49L587.32,20a26,26,0,0,0-3.12-.24,3.26,3.26,0,0,0-2.65,1.1,4.7,4.7,0,0,0-.92,3.1c0,.63,0,1.36,0,2.18s0,1.45.05,1.87c0,1.32.07,2.67.07,4a4.9,4.9,0,0,1-1.41,3.75,5.78,5.78,0,0,1-4,1.38V38a5.69,5.69,0,0,1,4,1.42,4.9,4.9,0,0,1,1.43,3.71c0,.7,0,1.47,0,2.32s0,1.48,0,1.9c-.05,1.29-.08,2.58-.08,3.88a5.58,5.58,0,0,0,.92,3.43,3.11,3.11,0,0,0,2.65,1.21,26,26,0,0,0,3.12-.24l.59,4.15a16,16,0,0,1-4.15.49A8,8,0,0,1,577.6,57.87Z"/>
    <path d="M647.05,29.66a5.91,5.91,0,0,1,2.47,3.13,16.25,16.25,0,0,1,.79,5.57h-5.12a7.48,7.48,0,0,0-.85-4.06A3,3,0,0,0,641.62,33a5.34,5.34,0,0,0-4.89,2.78c-1.1,1.86-1.65,4.54-1.65,8.06v6.83h6.35V55H624.14v-4.3h5.76V33.43h-4.78v-4.3h9l.88,6.64h.59a8,8,0,0,1,2-5.36,7,7,0,0,1,5.14-1.77A8.24,8.24,0,0,1,647.05,29.66Z"/>
    <path d="M677.31,44.37H659.83a7.65,7.65,0,0,0,3.08,4.9,10.65,10.65,0,0,0,6.3,1.69,32.19,32.19,0,0,0,6.35-.68l.63,4.54a40.83,40.83,0,0,1-7.57.68,16.47,16.47,0,0,1-7.5-1.56,10.62,10.62,0,0,1-4.7-4.58A15.34,15.34,0,0,1,654.8,42a17.29,17.29,0,0,1,1.37-7.2,10.09,10.09,0,0,1,4-4.59,12,12,0,0,1,6.31-1.59q5.28,0,8.13,3.2c1.91,2.14,2.86,5.2,2.86,9.21C677.46,42.24,677.41,43.34,677.31,44.37Zm-4.54-4a7.88,7.88,0,0,0-1.64-5.34,5.79,5.79,0,0,0-4.61-1.88,6.25,6.25,0,0,0-4.78,1.88,8.63,8.63,0,0,0-2.1,5.34Z"/>
    <path d="M706.66,54.91a40.46,40.46,0,0,1-6.79.59,16.14,16.14,0,0,1-6.39-1.07,7.11,7.11,0,0,1-3.59-3.32,12.84,12.84,0,0,1-1.15-5.86V33.43h-6.49v-4.3h6.49V21.32h5.18v7.81h11.76v4.3H693.92V45q0,3.11,1.51,4.48t4.93,1.38c.75,0,1.55,0,2.41-.12s2-.2,3.3-.37Z"/>
    <path d="M738.35,50.86V55l-8.3.25L729.68,50h-.46a7.18,7.18,0,0,1-2.24,4,6,6,0,0,1-4.06,1.42,8.91,8.91,0,0,1-6.68-2.42c-1.57-1.61-2.35-3.89-2.35-6.86V28.64H719V46.22a4.86,4.86,0,0,0,1.3,3.62,5.82,5.82,0,0,0,7.93-.63q1.42-1.89,1.42-6.16V28.64h5.18V50.32Z"/>
    <path d="M764.24,29.66a5.91,5.91,0,0,1,2.47,3.13,16.25,16.25,0,0,1,.79,5.57h-5.13a7.5,7.5,0,0,0-.84-4.06A3,3,0,0,0,758.81,33a5.35,5.35,0,0,0-4.9,2.78c-1.1,1.86-1.64,4.54-1.64,8.06v6.83h6.34V55H741.33v-4.3h5.76V33.43H742.3v-4.3h9l.88,6.64h.58a8,8,0,0,1,2-5.36,7,7,0,0,1,5.14-1.77A8.28,8.28,0,0,1,764.24,29.66Z"/>
    <path d="M791.62,31.13q2.25,2.49,2.25,7V55h-5.18V38.17a5.46,5.46,0,0,0-1.22-3.79A4.39,4.39,0,0,0,784.05,33q-6.1,0-6.1,7.42V55h-5.18V29.13h4.69l.42,4.69h.56a5.13,5.13,0,0,1,1.9-3.89,8,8,0,0,1,4.93-1.29A8.11,8.11,0,0,1,791.62,31.13Z"/>
    <path d="M831.37,20.34h4.68L840.94,36h-6.4Zm10.74,0h4.69L851.68,36h-6.4Z"/>
    <path d="M858.91,40.17V35.24l23.38-9.62V31l-18.06,6.49v.44l18.06,6.5v5.37Z"/>
    <path d="M910.35,39.72a8.4,8.4,0,0,1,2.22,6A9.57,9.57,0,0,1,911.16,51a8.73,8.73,0,0,1-4.08,3.34,16.38,16.38,0,0,1-6.47,1.15q-11.77,0-11.77-10.21h5.22q0,5.72,6.35,5.72a7.8,7.8,0,0,0,5.12-1.52,5.2,5.2,0,0,0,1.81-4.24,5,5,0,0,0-2.73-4.52,15.48,15.48,0,0,0-7.72-1.59h-.78L895.53,36q5.54-.69,8.19-2.53a5.47,5.47,0,0,0,2.65-4.6,4,4,0,0,0-1.49-3.31,6.66,6.66,0,0,0-4.23-1.18,6.75,6.75,0,0,0-4.33,1.23,4.24,4.24,0,0,0-1.53,3.5h-5.22a8.89,8.89,0,0,1,1.37-5,8.53,8.53,0,0,1,4-3.16,16.37,16.37,0,0,1,6.27-1.08c3.32,0,5.89.67,7.69,2a6.72,6.72,0,0,1,2.71,5.75,8.19,8.19,0,0,1-.9,3.8,8.85,8.85,0,0,1-2.54,3,10.51,10.51,0,0,1-3.78,1.8v.52A10.29,10.29,0,0,1,910.35,39.72Z"/>
    <path d="M923.7,20.34h6.4L925.21,36h-4.68Zm10.74,0h6.4L936,36h-4.69Z"/>
    <path d="M978.78,59.75l.59-4.15a25.81,25.81,0,0,0,3.12.24,3.11,3.11,0,0,0,2.65-1.21,5.58,5.58,0,0,0,.91-3.43c0-1.3,0-2.59-.07-3.88,0-.42,0-1.06,0-1.9s-.05-1.62-.05-2.32a4.87,4.87,0,0,1,1.43-3.71,5.69,5.69,0,0,1,4-1.42v-.83a5.78,5.78,0,0,1-4-1.38A4.9,4.9,0,0,1,985.91,32c0-.63,0-1.36,0-2.18s0-1.45.05-1.87c0-1.32.07-2.67.07-4.05a4.7,4.7,0,0,0-.91-3.1,3.26,3.26,0,0,0-2.65-1.1,25.81,25.81,0,0,0-3.12.24l-.59-4.15a16,16,0,0,1,4.15-.49,8.18,8.18,0,0,1,6.16,2.25,8.72,8.72,0,0,1,2.19,6.35q0,2.61,0,3.93l0,4.27a2.34,2.34,0,0,0,.95,1.84,7.14,7.14,0,0,0,2.28,1.24,7.85,7.85,0,0,0,2.39.44v3.85a9.55,9.55,0,0,0-2.47.35A5.55,5.55,0,0,0,992.16,41a2.54,2.54,0,0,0-.93,2l0,4.2c0,.88,0,2.21,0,4a9.46,9.46,0,0,1-2.19,6.67,8,8,0,0,1-6.16,2.37A16,16,0,0,1,978.78,59.75Z"/>
  </g>
</svg>
